<?xml version="1.0" encoding="UTF-8" standalone="no"?>
<!-- Created with Inkscape (http://www.inkscape.org/) -->

<svg
   xmlns:dc="http://purl.org/dc/elements/1.1/"
   xmlns:cc="http://creativecommons.org/ns#"
   xmlns:rdf="http://www.w3.org/1999/02/22-rdf-syntax-ns#"
   xmlns:svg="http://www.w3.org/2000/svg"
   xmlns="http://www.w3.org/2000/svg"
   xmlns:sodipodi="http://sodipodi.sourceforge.net/DTD/sodipodi-0.dtd"
   xmlns:inkscape="http://www.inkscape.org/namespaces/inkscape"
   width="800"
   height="800"
   id="svg2972"
   version="1.1"
   inkscape:version="0.92.4 (5da689c313, 2019-01-14)"
   sodipodi:docname="logo_skillbill.svg">
  <defs
     id="defs2974">
    <inkscape:perspective
       sodipodi:type="inkscape:persp3d"
       inkscape:vp_x="0 : 526.18109 : 1"
       inkscape:vp_y="0 : 1000 : 0"
       inkscape:vp_z="744.09448 : 526.18109 : 1"
       inkscape:persp3d-origin="372.04724 : 350.78739 : 1"
       id="perspective2980" />
    <inkscape:perspective
       id="perspective2959"
       inkscape:persp3d-origin="0.5 : 0.33333333 : 1"
       inkscape:vp_z="1 : 0.5 : 1"
       inkscape:vp_y="0 : 1000 : 0"
       inkscape:vp_x="0 : 0.5 : 1"
       sodipodi:type="inkscape:persp3d" />
  </defs>
  <sodipodi:namedview
     id="base"
     pagecolor="#ffffff"
     bordercolor="#666666"
     borderopacity="1.0"
     inkscape:pageopacity="0.0"
     inkscape:pageshadow="2"
     inkscape:zoom="1.4142136"
     inkscape:cx="379.45206"
     inkscape:cy="393.75086"
     inkscape:document-units="px"
     inkscape:current-layer="g4193-2-1"
     showgrid="false"
     inkscape:window-width="1920"
     inkscape:window-height="966"
     inkscape:window-x="0"
     inkscape:window-y="27"
     inkscape:window-maximized="1" />
  <metadata
     id="metadata2977">
    <rdf:RDF>
      <cc:Work
         rdf:about="">
        <dc:format>image/svg+xml</dc:format>
        <dc:type
           rdf:resource="http://purl.org/dc/dcmitype/StillImage" />
        <dc:title />
      </cc:Work>
    </rdf:RDF>
  </metadata>
  <g
     inkscape:label="Layer 1"
     inkscape:groupmode="layer"
     id="layer1"
     transform="translate(0,-252.36218)">
    <g
       transform="translate(-14.321691,151.71967)"
       id="g4193-2-1">
      <circle
         id="path3632-0-7"
         style="fill:#fb6703;fill-opacity:1;fill-rule:nonzero;stroke:none;stroke-width:16.11239624"
         cx="54.21434"
         cy="306.36963"
         r="34.238842" />
      <circle
         id="path3632-9-6-2"
         style="fill:#fb6703;fill-opacity:1;fill-rule:nonzero;stroke:none;stroke-width:15.71378803"
         cx="458.05438"
         cy="505.04718"
         r="33.391804" />
      <path
         d="m 515.54783,537.89719 c 58.83376,6.68543 95.84906,21.30981 95.84887,76.84867 l 0.30754,105.84005 c 2.30778,25.52561 9.40629,86.67335 30.52581,104.67222 20.3656,18.51285 30.72412,32.02647 51.84369,32.54089 l 97.4618,2.31411 -0.81586,-72.80874 -35.67958,-1.54274 c -23.38246,-1.02864 -39.18304,-3.38853 -46.72588,-9.04518 -8.29691,-5.14259 -19.36815,-30.38811 -19.36825,-45.81553 l 0.23112,-89.24954 c -1.15374,-36.51224 0.42728,-53.13642 -10.02615,-83.1662 -15.08535,-24.16957 -28.80442,-42.42039 -55.95854,-55.79107 55.06229,-29.31202 63.90807,-71.34085 63.90792,-117.62363 l 2.07919,-126.2395 c 1.3e-4,-15.42699 1.90698,-32.18812 22.5513,-45.66517 11.75808,-7.67592 23.79833,-5.50236 44.94099,-5.79642 l 34.86374,-0.4849 V 130.3922 l -99.72461,3.0855 c -20.36533,0.51486 -35.01981,11.11194 -55.3854,30.13867 -20.36526,19.02775 -24.83704,46.51794 -24.83723,65.54468 l -2.8951,136.36074 c 2e-4,58.62475 -34.31161,97.03738 -93.14537,102.69389 v 33.77623"
         style="font-style:normal;font-variant:normal;font-weight:normal;font-stretch:normal;font-size:62.84966278px;line-height:100%;font-family:SansSerif;-inkscape-font-specification:SansSerif;text-align:start;writing-mode:lr-tb;text-anchor:start;fill:#003365;fill-opacity:1;stroke:none;stroke-width:1.63547373"
         id="path3670-8-7"
         sodipodi:nodetypes="cccccccccccccccsscccscccc"
         inkscape:connector-curvature="0" />
      <circle
         id="path3632-7-9-2"
         style="fill:#003365;fill-opacity:1;fill-rule:nonzero;stroke:none;stroke-width:16.11239624"
         cy="307.54239"
         cx="775.54938"
         r="34.238842" />
      <path
         d="m 311.81052,541.10042 c -58.83377,6.68542 -95.84907,21.30981 -95.84887,76.84866 l -0.30756,101.59743 c -2.30777,25.52559 -9.40629,86.67333 -30.52578,104.6722 -20.36562,18.51285 -30.72413,34.02647 -51.84372,34.54087 l -97.70441,3.31411 0.05848,-75.10159 40.6796,-1.54275 c 23.388244,-0.88699 38.93584,-3.7341 46.72588,-9.04519 8.06528,-5.49875 18.76945,-30.39975 19.36825,-45.81554 l 3.76888,-97.02773 c 1.41789,-36.50291 -2.29048,-52.10762 6.02614,-75.85245 9.28269,-26.50307 28.80443,-38.42042 55.95853,-51.79108 C 153.10366,476.58532 140.2579,434.5565 140.25803,388.27372 l 1.92079,-130.98215 c -1.1e-4,-15.42699 -0.0849,-42.50811 -18.55128,-46.70351 -12.67213,-4.2285 -32.574916,-3.862 -48.940979,-4.75805 -12.936214,-0.70826 -38.86374,-0.4849 -38.86374,-0.4849 v -75.99233 l 99.724609,3.0855 c 20.36532,0.51488 35.01979,11.11196 55.3854,30.13864 20.36524,19.02778 24.83703,46.51796 24.83723,65.54471 l 2.89508,140.60337 c -1.8e-4,58.62476 34.31161,97.0374 93.14538,102.6939 v 33.77622"
         style="font-style:normal;font-variant:normal;font-weight:normal;font-stretch:normal;font-size:62.84966278px;line-height:100%;font-family:SansSerif;-inkscape-font-specification:SansSerif;text-align:start;writing-mode:lr-tb;text-anchor:start;fill:#fb6703;fill-opacity:1;stroke:none;stroke-width:1.63547373"
         id="path3670-6-2-2"
         sodipodi:nodetypes="cccccccsssssccccacccscccc"
         inkscape:connector-curvature="0" />
      <circle
         id="path3632-9-1-6-6"
         style="fill:#003365;fill-opacity:1;fill-rule:nonzero;stroke:none;stroke-width:15.71378803"
         cx="369.07211"
         cy="505.02386"
         r="33.391804" />
    </g>
  </g>
</svg>
