<svg xmlns="http://www.w3.org/2000/svg" viewBox="0 0 512 512" id="online-meeting" fill="#003363"><path d="M484.001 29.772H27.999c-15.439 0-28 12.561-28 28v282.899c0 15.439 12.561 28 28 28h139.029c-3.265 21.605-12.495 41.352-28.581 61.301h-18.692c-14.407 0-26.127 11.721-26.127 26.127v18.128a8 8 0 0 0 8 8h308.745a8 8 0 0 0 8-8V456.1c0-14.407-11.721-26.127-26.127-26.127h-18.692c-16.085-19.95-25.315-39.696-28.581-61.301h139.029c15.439 0 28-12.561 28-28V57.771c-.001-15.438-12.562-27.999-28.001-27.999zM402.373 456.1v10.128H109.627V456.1c0-5.584 4.543-10.127 10.127-10.127h272.49c5.586-.001 10.129 4.542 10.129 10.127zm-48.877-26.128H158.504c13.836-19.672 21.836-39.572 24.698-61.301h145.596c2.861 21.73 10.861 41.629 24.698 61.301zm142.505-89.301c0 6.617-5.383 12-12 12H27.999c-6.617 0-12-5.383-12-12v-282.9c0-6.617 5.383-12 12-12h456.002c6.617 0 12 5.383 12 12v282.9zM467.528 61.245H44.473c-7.168 0-13 5.832-13 13v249.953c0 7.168 5.832 13 13 13h423.055c7.168 0 13-5.832 13-13V74.244c0-7.168-5.832-12.999-13-12.999zm-3 129.976h-43.11c-2.744-19.696-15.458-36.234-32.868-44.345 5.489-5.916 8.853-13.829 8.853-22.516 0-18.273-14.866-33.139-33.139-33.139-18.273 0-33.139 14.866-33.139 33.139 0 8.687 3.364 16.6 8.853 22.515-17.411 8.111-30.124 24.649-32.869 44.345H264V77.245h200.528v113.976zM364.265 141.5c-9.451 0-17.139-7.688-17.139-17.139s7.688-17.139 17.139-17.139c9.45 0 17.139 7.688 17.139 17.139s-7.689 17.139-17.139 17.139zm-.001 16c20.269 0 37.201 14.531 40.944 33.721h-81.887c3.742-19.19 20.674-33.721 40.943-33.721zM248 77.245v113.976h-43.109c-2.744-19.695-15.457-36.234-32.868-44.345 5.489-5.916 8.853-13.829 8.853-22.516 0-18.273-14.866-33.139-33.139-33.139s-33.139 14.866-33.139 33.139c0 8.687 3.364 16.6 8.853 22.515-17.411 8.111-30.124 24.649-32.869 44.345H47.473V77.245H248zM147.737 141.5c-9.451 0-17.139-7.688-17.139-17.139s7.688-17.139 17.139-17.139 17.139 7.688 17.139 17.139-7.688 17.139-17.139 17.139zm0 16c20.269 0 37.201 14.531 40.944 33.721h-81.887c3.742-19.19 20.674-33.721 40.943-33.721zM47.473 207.221H248v113.976h-43.109c-2.744-19.696-15.457-36.234-32.868-44.345 5.489-5.916 8.853-13.829 8.853-22.516 0-18.273-14.866-33.139-33.139-33.139s-33.139 14.866-33.139 33.139c0 8.687 3.364 16.6 8.853 22.515-17.411 8.111-30.125 24.649-32.869 44.345H47.473V207.221zm100.264 64.254c-9.451 0-17.139-7.688-17.139-17.139s7.688-17.139 17.139-17.139 17.139 7.688 17.139 17.139-7.688 17.139-17.139 17.139zm0 16c20.269 0 37.201 14.531 40.944 33.722h-81.888c3.743-19.191 20.675-33.722 40.944-33.722zm216.528-16c-9.451 0-17.139-7.688-17.139-17.139s7.688-17.139 17.139-17.139c9.45 0 17.139 7.688 17.139 17.139s-7.689 17.139-17.139 17.139zm-.001 16c20.269 0 37.201 14.531 40.944 33.722H323.32c3.743-19.191 20.675-33.722 40.944-33.722zm57.155 33.722c-2.744-19.696-15.458-36.234-32.868-44.345 5.489-5.916 8.853-13.829 8.853-22.516 0-18.273-14.866-33.139-33.139-33.139-18.273 0-33.139 14.866-33.139 33.139 0 8.687 3.364 16.6 8.853 22.515-17.411 8.111-30.125 24.649-32.869 44.345H264V207.221h200.528v113.976h-43.109z"></path></svg>